<mxfile host="app.diagrams.net" modified="2024-01-30T15:26:35.447Z" agent="Mozilla/5.0 (Windows NT 10.0; Win64; x64) AppleWebKit/537.36 (KHTML, like Gecko) Chrome/120.0.0.0 Safari/537.36" etag="Rp_Ry3cNbBH5UAkS1rr3" version="23.0.2" type="github">
  <diagram name="Page-1" id="O4dz9bmArI56KhyuDSom">
    <mxGraphModel dx="1434" dy="763" grid="1" gridSize="10" guides="1" tooltips="1" connect="1" arrows="1" fold="1" page="1" pageScale="1" pageWidth="850" pageHeight="1100" math="0" shadow="0">
      <root>
        <mxCell id="0" />
        <mxCell id="1" parent="0" />
        <mxCell id="rQKJxtvtCGt_3DYwWGcp-10" style="edgeStyle=orthogonalEdgeStyle;rounded=0;orthogonalLoop=1;jettySize=auto;html=1;entryX=0.5;entryY=0;entryDx=0;entryDy=0;endArrow=none;endFill=0;" parent="1" source="rQKJxtvtCGt_3DYwWGcp-1" target="rQKJxtvtCGt_3DYwWGcp-3" edge="1">
          <mxGeometry relative="1" as="geometry" />
        </mxCell>
        <mxCell id="rQKJxtvtCGt_3DYwWGcp-11" style="edgeStyle=orthogonalEdgeStyle;rounded=0;orthogonalLoop=1;jettySize=auto;html=1;entryX=0.5;entryY=0;entryDx=0;entryDy=0;endArrow=none;endFill=0;" parent="1" source="rQKJxtvtCGt_3DYwWGcp-3" target="rQKJxtvtCGt_3DYwWGcp-4" edge="1">
          <mxGeometry relative="1" as="geometry" />
        </mxCell>
        <mxCell id="rQKJxtvtCGt_3DYwWGcp-3" value="&lt;b&gt;Обслуживает&lt;/b&gt;" style="rhombus;whiteSpace=wrap;html=1;" parent="1" vertex="1">
          <mxGeometry x="520" y="290" width="130" height="50" as="geometry" />
        </mxCell>
        <mxCell id="rQKJxtvtCGt_3DYwWGcp-13" style="edgeStyle=orthogonalEdgeStyle;rounded=0;orthogonalLoop=1;jettySize=auto;html=1;entryX=0;entryY=0.5;entryDx=0;entryDy=0;endArrow=none;endFill=0;" parent="1" source="rQKJxtvtCGt_3DYwWGcp-7" target="rQKJxtvtCGt_3DYwWGcp-4" edge="1">
          <mxGeometry relative="1" as="geometry" />
        </mxCell>
        <mxCell id="rQKJxtvtCGt_3DYwWGcp-7" value="&lt;b&gt;Покупает&lt;/b&gt;" style="rhombus;whiteSpace=wrap;html=1;" parent="1" vertex="1">
          <mxGeometry x="360" y="410" width="130" height="50" as="geometry" />
        </mxCell>
        <mxCell id="rQKJxtvtCGt_3DYwWGcp-21" style="rounded=0;orthogonalLoop=1;jettySize=auto;html=1;entryX=0.5;entryY=0;entryDx=0;entryDy=0;endArrow=none;endFill=0;" parent="1" source="rQKJxtvtCGt_3DYwWGcp-20" target="rQKJxtvtCGt_3DYwWGcp-1" edge="1">
          <mxGeometry relative="1" as="geometry" />
        </mxCell>
        <mxCell id="rQKJxtvtCGt_3DYwWGcp-20" value="&lt;b&gt;Id_Сотр&lt;/b&gt;" style="ellipse;whiteSpace=wrap;html=1;" parent="1" vertex="1">
          <mxGeometry x="250" y="140" width="80" height="50" as="geometry" />
        </mxCell>
        <mxCell id="rQKJxtvtCGt_3DYwWGcp-23" style="rounded=0;orthogonalLoop=1;jettySize=auto;html=1;entryX=0.5;entryY=0;entryDx=0;entryDy=0;endArrow=none;endFill=0;" parent="1" source="rQKJxtvtCGt_3DYwWGcp-22" target="rQKJxtvtCGt_3DYwWGcp-1" edge="1">
          <mxGeometry relative="1" as="geometry" />
        </mxCell>
        <mxCell id="rQKJxtvtCGt_3DYwWGcp-22" value="&lt;b&gt;ФИО&lt;/b&gt;" style="ellipse;whiteSpace=wrap;html=1;" parent="1" vertex="1">
          <mxGeometry x="330" y="90" width="80" height="50" as="geometry" />
        </mxCell>
        <mxCell id="rQKJxtvtCGt_3DYwWGcp-25" style="rounded=0;orthogonalLoop=1;jettySize=auto;html=1;entryX=0.5;entryY=0;entryDx=0;entryDy=0;endArrow=none;endFill=0;" parent="1" source="rQKJxtvtCGt_3DYwWGcp-24" target="rQKJxtvtCGt_3DYwWGcp-1" edge="1">
          <mxGeometry relative="1" as="geometry" />
        </mxCell>
        <mxCell id="rQKJxtvtCGt_3DYwWGcp-24" value="&lt;b&gt;Работа&lt;/b&gt;" style="ellipse;whiteSpace=wrap;html=1;" parent="1" vertex="1">
          <mxGeometry x="420" y="90" width="80" height="50" as="geometry" />
        </mxCell>
        <mxCell id="rQKJxtvtCGt_3DYwWGcp-27" style="edgeStyle=orthogonalEdgeStyle;rounded=0;orthogonalLoop=1;jettySize=auto;html=1;entryX=0;entryY=0.5;entryDx=0;entryDy=0;endArrow=none;endFill=0;" parent="1" source="rQKJxtvtCGt_3DYwWGcp-26" target="rQKJxtvtCGt_3DYwWGcp-7" edge="1">
          <mxGeometry relative="1" as="geometry" />
        </mxCell>
        <mxCell id="rQKJxtvtCGt_3DYwWGcp-29" value="" style="group" parent="1" vertex="1" connectable="0">
          <mxGeometry x="235" y="390" width="90" height="60" as="geometry" />
        </mxCell>
        <mxCell id="rQKJxtvtCGt_3DYwWGcp-26" value="&lt;b&gt;Покупатель&lt;/b&gt;" style="rounded=0;whiteSpace=wrap;html=1;" parent="rQKJxtvtCGt_3DYwWGcp-29" vertex="1">
          <mxGeometry y="30" width="90" height="30" as="geometry" />
        </mxCell>
        <mxCell id="rQKJxtvtCGt_3DYwWGcp-32" value="" style="group" parent="1" vertex="1" connectable="0">
          <mxGeometry x="350" y="205" width="130" height="45" as="geometry" />
        </mxCell>
        <mxCell id="rQKJxtvtCGt_3DYwWGcp-1" value="&lt;b&gt;Сотрудник&lt;/b&gt;" style="rounded=0;whiteSpace=wrap;html=1;" parent="rQKJxtvtCGt_3DYwWGcp-32" vertex="1">
          <mxGeometry x="20" y="15" width="90" height="30" as="geometry" />
        </mxCell>
        <mxCell id="rQKJxtvtCGt_3DYwWGcp-15" value="&lt;font style=&quot;font-size: 12px;&quot;&gt;1&lt;/font&gt;" style="text;strokeColor=none;fillColor=none;html=1;fontSize=24;fontStyle=1;verticalAlign=middle;align=center;" parent="rQKJxtvtCGt_3DYwWGcp-32" vertex="1">
          <mxGeometry x="110" width="20" height="30" as="geometry" />
        </mxCell>
        <mxCell id="rQKJxtvtCGt_3DYwWGcp-33" value="" style="group" parent="1" vertex="1" connectable="0">
          <mxGeometry x="520" y="390" width="110" height="75" as="geometry" />
        </mxCell>
        <mxCell id="rQKJxtvtCGt_3DYwWGcp-4" value="&lt;b&gt;Заказ&lt;/b&gt;" style="rounded=0;whiteSpace=wrap;html=1;" parent="rQKJxtvtCGt_3DYwWGcp-33" vertex="1">
          <mxGeometry x="20" y="30" width="90" height="30" as="geometry" />
        </mxCell>
        <mxCell id="rQKJxtvtCGt_3DYwWGcp-16" value="&lt;span style=&quot;font-size: 12px;&quot;&gt;М&lt;/span&gt;" style="text;strokeColor=none;fillColor=none;html=1;fontSize=24;fontStyle=1;verticalAlign=middle;align=center;" parent="rQKJxtvtCGt_3DYwWGcp-33" vertex="1">
          <mxGeometry x="66" width="20" height="30" as="geometry" />
        </mxCell>
        <mxCell id="rQKJxtvtCGt_3DYwWGcp-19" value="&lt;font style=&quot;font-size: 12px;&quot;&gt;М&lt;/font&gt;" style="text;strokeColor=none;fillColor=none;html=1;fontSize=24;fontStyle=1;verticalAlign=middle;align=center;" parent="rQKJxtvtCGt_3DYwWGcp-33" vertex="1">
          <mxGeometry y="45" width="20" height="30" as="geometry" />
        </mxCell>
        <mxCell id="D4wwO6mZ5H6t1skt2xZH-3" style="rounded=0;orthogonalLoop=1;jettySize=auto;html=1;entryX=0;entryY=0.5;entryDx=0;entryDy=0;endArrow=none;endFill=0;" parent="1" source="rQKJxtvtCGt_3DYwWGcp-36" target="rQKJxtvtCGt_3DYwWGcp-26" edge="1">
          <mxGeometry relative="1" as="geometry" />
        </mxCell>
        <mxCell id="rQKJxtvtCGt_3DYwWGcp-36" value="&lt;b&gt;&lt;font style=&quot;font-size: 10px;&quot;&gt;Id_Покупателя&lt;/font&gt;&lt;/b&gt;" style="ellipse;whiteSpace=wrap;html=1;" parent="1" vertex="1">
          <mxGeometry x="150" y="370" width="80" height="50" as="geometry" />
        </mxCell>
        <mxCell id="46tNjWy_n5tuVJD50fyD-4" style="rounded=0;orthogonalLoop=1;jettySize=auto;html=1;entryX=0;entryY=0.5;entryDx=0;entryDy=0;endArrow=none;endFill=0;" parent="1" source="46tNjWy_n5tuVJD50fyD-3" target="rQKJxtvtCGt_3DYwWGcp-26" edge="1">
          <mxGeometry relative="1" as="geometry" />
        </mxCell>
        <mxCell id="46tNjWy_n5tuVJD50fyD-3" value="&lt;b&gt;ФИО&lt;/b&gt;" style="ellipse;whiteSpace=wrap;html=1;" parent="1" vertex="1">
          <mxGeometry x="150" y="460" width="80" height="50" as="geometry" />
        </mxCell>
        <mxCell id="D4wwO6mZ5H6t1skt2xZH-1" value="&lt;b style=&quot;font-size: 11px;&quot;&gt;Паспортные&lt;br&gt;данные&lt;br&gt;&lt;/b&gt;" style="ellipse;whiteSpace=wrap;html=1;" parent="1" vertex="1">
          <mxGeometry x="490" y="140" width="80" height="50" as="geometry" />
        </mxCell>
        <mxCell id="D4wwO6mZ5H6t1skt2xZH-2" style="rounded=0;orthogonalLoop=1;jettySize=auto;html=1;entryX=0;entryY=1;entryDx=0;entryDy=0;endArrow=none;endFill=0;exitX=0.5;exitY=0;exitDx=0;exitDy=0;" parent="1" source="rQKJxtvtCGt_3DYwWGcp-1" target="D4wwO6mZ5H6t1skt2xZH-1" edge="1">
          <mxGeometry relative="1" as="geometry" />
        </mxCell>
        <mxCell id="rQKJxtvtCGt_3DYwWGcp-28" value="&lt;font style=&quot;font-size: 12px;&quot;&gt;1&lt;/font&gt;" style="text;strokeColor=none;fillColor=none;html=1;fontSize=24;fontStyle=1;verticalAlign=middle;align=center;" parent="1" vertex="1">
          <mxGeometry x="330" y="430" width="20" height="30" as="geometry" />
        </mxCell>
        <mxCell id="D4wwO6mZ5H6t1skt2xZH-4" value="&lt;b&gt;Id_Сотр&lt;/b&gt;" style="ellipse;whiteSpace=wrap;html=1;" parent="1" vertex="1">
          <mxGeometry x="480" y="540" width="80" height="50" as="geometry" />
        </mxCell>
        <mxCell id="D4wwO6mZ5H6t1skt2xZH-5" value="&lt;b&gt;Id_Заказа&lt;/b&gt;" style="ellipse;whiteSpace=wrap;html=1;" parent="1" vertex="1">
          <mxGeometry x="440" y="490" width="80" height="50" as="geometry" />
        </mxCell>
        <mxCell id="D4wwO6mZ5H6t1skt2xZH-6" value="&lt;b&gt;&lt;font style=&quot;font-size: 10px;&quot;&gt;Id_Покупателя&lt;/font&gt;&lt;/b&gt;" style="ellipse;whiteSpace=wrap;html=1;" parent="1" vertex="1">
          <mxGeometry x="545" y="580" width="80" height="50" as="geometry" />
        </mxCell>
        <mxCell id="D4wwO6mZ5H6t1skt2xZH-7" value="&lt;b&gt;&lt;font style=&quot;font-size: 11px;&quot;&gt;Дата Оформления&lt;/font&gt;&lt;/b&gt;" style="ellipse;whiteSpace=wrap;html=1;" parent="1" vertex="1">
          <mxGeometry x="610" y="540" width="80" height="50" as="geometry" />
        </mxCell>
        <mxCell id="D4wwO6mZ5H6t1skt2xZH-8" value="&lt;b&gt;Условия&lt;/b&gt;" style="ellipse;whiteSpace=wrap;html=1;" parent="1" vertex="1">
          <mxGeometry x="660" y="490" width="80" height="50" as="geometry" />
        </mxCell>
        <mxCell id="D4wwO6mZ5H6t1skt2xZH-9" style="rounded=0;orthogonalLoop=1;jettySize=auto;html=1;entryX=1;entryY=0;entryDx=0;entryDy=0;endArrow=none;endFill=0;exitX=0.5;exitY=1;exitDx=0;exitDy=0;" parent="1" source="rQKJxtvtCGt_3DYwWGcp-4" target="D4wwO6mZ5H6t1skt2xZH-5" edge="1">
          <mxGeometry relative="1" as="geometry" />
        </mxCell>
        <mxCell id="D4wwO6mZ5H6t1skt2xZH-10" style="rounded=0;orthogonalLoop=1;jettySize=auto;html=1;entryX=1;entryY=0;entryDx=0;entryDy=0;endArrow=none;endFill=0;exitX=0.5;exitY=1;exitDx=0;exitDy=0;" parent="1" source="rQKJxtvtCGt_3DYwWGcp-4" target="D4wwO6mZ5H6t1skt2xZH-4" edge="1">
          <mxGeometry relative="1" as="geometry" />
        </mxCell>
        <mxCell id="D4wwO6mZ5H6t1skt2xZH-11" style="rounded=0;orthogonalLoop=1;jettySize=auto;html=1;entryX=0.5;entryY=0;entryDx=0;entryDy=0;endArrow=none;endFill=0;" parent="1" source="rQKJxtvtCGt_3DYwWGcp-4" target="D4wwO6mZ5H6t1skt2xZH-6" edge="1">
          <mxGeometry relative="1" as="geometry" />
        </mxCell>
        <mxCell id="D4wwO6mZ5H6t1skt2xZH-12" style="rounded=0;orthogonalLoop=1;jettySize=auto;html=1;entryX=0;entryY=0;entryDx=0;entryDy=0;endArrow=none;endFill=0;exitX=0.5;exitY=1;exitDx=0;exitDy=0;" parent="1" source="rQKJxtvtCGt_3DYwWGcp-4" target="D4wwO6mZ5H6t1skt2xZH-7" edge="1">
          <mxGeometry relative="1" as="geometry" />
        </mxCell>
        <mxCell id="D4wwO6mZ5H6t1skt2xZH-13" style="rounded=0;orthogonalLoop=1;jettySize=auto;html=1;entryX=0;entryY=0;entryDx=0;entryDy=0;endArrow=none;endFill=0;exitX=0.5;exitY=1;exitDx=0;exitDy=0;" parent="1" source="rQKJxtvtCGt_3DYwWGcp-4" target="D4wwO6mZ5H6t1skt2xZH-8" edge="1">
          <mxGeometry relative="1" as="geometry" />
        </mxCell>
        <mxCell id="D4wwO6mZ5H6t1skt2xZH-18" style="edgeStyle=orthogonalEdgeStyle;rounded=0;orthogonalLoop=1;jettySize=auto;html=1;entryX=1;entryY=0.5;entryDx=0;entryDy=0;endArrow=none;endFill=0;" parent="1" source="D4wwO6mZ5H6t1skt2xZH-15" target="D4wwO6mZ5H6t1skt2xZH-16" edge="1">
          <mxGeometry relative="1" as="geometry" />
        </mxCell>
        <mxCell id="D4wwO6mZ5H6t1skt2xZH-15" value="&lt;b&gt;Чек&lt;/b&gt;" style="rounded=0;whiteSpace=wrap;html=1;" parent="1" vertex="1">
          <mxGeometry x="830" y="420" width="90" height="30" as="geometry" />
        </mxCell>
        <mxCell id="D4wwO6mZ5H6t1skt2xZH-19" style="edgeStyle=orthogonalEdgeStyle;rounded=0;orthogonalLoop=1;jettySize=auto;html=1;entryX=1;entryY=0.5;entryDx=0;entryDy=0;endArrow=none;endFill=0;" parent="1" source="D4wwO6mZ5H6t1skt2xZH-16" target="rQKJxtvtCGt_3DYwWGcp-4" edge="1">
          <mxGeometry relative="1" as="geometry" />
        </mxCell>
        <mxCell id="D4wwO6mZ5H6t1skt2xZH-16" value="&lt;b&gt;Состоит из&lt;/b&gt;" style="rhombus;whiteSpace=wrap;html=1;" parent="1" vertex="1">
          <mxGeometry x="670" y="410" width="130" height="50" as="geometry" />
        </mxCell>
        <mxCell id="D4wwO6mZ5H6t1skt2xZH-20" style="edgeStyle=orthogonalEdgeStyle;rounded=0;orthogonalLoop=1;jettySize=auto;html=1;entryX=0.5;entryY=0;entryDx=0;entryDy=0;endArrow=none;endFill=0;" parent="1" source="D4wwO6mZ5H6t1skt2xZH-17" target="D4wwO6mZ5H6t1skt2xZH-15" edge="1">
          <mxGeometry relative="1" as="geometry" />
        </mxCell>
        <mxCell id="D4wwO6mZ5H6t1skt2xZH-17" value="&lt;b&gt;Состоит из&lt;/b&gt;" style="rhombus;whiteSpace=wrap;html=1;" parent="1" vertex="1">
          <mxGeometry x="810" y="290" width="130" height="50" as="geometry" />
        </mxCell>
        <mxCell id="D4wwO6mZ5H6t1skt2xZH-21" value="&lt;b&gt;Id_Заказа&lt;/b&gt;" style="ellipse;whiteSpace=wrap;html=1;" parent="1" vertex="1">
          <mxGeometry x="760" y="490" width="80" height="50" as="geometry" />
        </mxCell>
        <mxCell id="D4wwO6mZ5H6t1skt2xZH-22" value="&lt;b&gt;Id_Товара&lt;/b&gt;" style="ellipse;whiteSpace=wrap;html=1;" parent="1" vertex="1">
          <mxGeometry x="790" y="540" width="80" height="50" as="geometry" />
        </mxCell>
        <mxCell id="D4wwO6mZ5H6t1skt2xZH-23" value="&lt;b&gt;Как продали&lt;/b&gt;" style="ellipse;whiteSpace=wrap;html=1;" parent="1" vertex="1">
          <mxGeometry x="860" y="570" width="80" height="50" as="geometry" />
        </mxCell>
        <mxCell id="D4wwO6mZ5H6t1skt2xZH-24" value="&lt;b&gt;Количество&lt;/b&gt;" style="ellipse;whiteSpace=wrap;html=1;" parent="1" vertex="1">
          <mxGeometry x="940" y="550" width="80" height="50" as="geometry" />
        </mxCell>
        <mxCell id="D4wwO6mZ5H6t1skt2xZH-25" value="&lt;b&gt;Цена&lt;/b&gt;" style="ellipse;whiteSpace=wrap;html=1;" parent="1" vertex="1">
          <mxGeometry x="990" y="500" width="80" height="50" as="geometry" />
        </mxCell>
        <mxCell id="D4wwO6mZ5H6t1skt2xZH-26" value="&lt;b&gt;Срок сдачи&lt;/b&gt;" style="ellipse;whiteSpace=wrap;html=1;" parent="1" vertex="1">
          <mxGeometry x="1030" y="450" width="80" height="50" as="geometry" />
        </mxCell>
        <mxCell id="D4wwO6mZ5H6t1skt2xZH-27" value="&lt;b&gt;Дата актуальной сдачи&lt;/b&gt;" style="ellipse;whiteSpace=wrap;html=1;" parent="1" vertex="1">
          <mxGeometry x="1070" y="402.5" width="80" height="50" as="geometry" />
        </mxCell>
        <mxCell id="D4wwO6mZ5H6t1skt2xZH-28" value="&lt;b&gt;Штраф&lt;/b&gt;" style="ellipse;whiteSpace=wrap;html=1;" parent="1" vertex="1">
          <mxGeometry x="1020" y="352.5" width="80" height="50" as="geometry" />
        </mxCell>
        <mxCell id="D4wwO6mZ5H6t1skt2xZH-29" value="&lt;b&gt;Задолжность&lt;/b&gt;" style="ellipse;whiteSpace=wrap;html=1;" parent="1" vertex="1">
          <mxGeometry x="960" y="310" width="80" height="50" as="geometry" />
        </mxCell>
        <mxCell id="D4wwO6mZ5H6t1skt2xZH-30" style="rounded=0;orthogonalLoop=1;jettySize=auto;html=1;exitX=1;exitY=1;exitDx=0;exitDy=0;entryX=1.008;entryY=0.34;entryDx=0;entryDy=0;entryPerimeter=0;endArrow=none;endFill=0;" parent="1" source="D4wwO6mZ5H6t1skt2xZH-15" target="D4wwO6mZ5H6t1skt2xZH-21" edge="1">
          <mxGeometry relative="1" as="geometry" />
        </mxCell>
        <mxCell id="D4wwO6mZ5H6t1skt2xZH-31" style="rounded=0;orthogonalLoop=1;jettySize=auto;html=1;exitX=1;exitY=1;exitDx=0;exitDy=0;entryX=1;entryY=0;entryDx=0;entryDy=0;endArrow=none;endFill=0;" parent="1" source="D4wwO6mZ5H6t1skt2xZH-15" target="D4wwO6mZ5H6t1skt2xZH-22" edge="1">
          <mxGeometry relative="1" as="geometry">
            <mxPoint x="930" y="460" as="sourcePoint" />
            <mxPoint x="851" y="517" as="targetPoint" />
          </mxGeometry>
        </mxCell>
        <mxCell id="D4wwO6mZ5H6t1skt2xZH-32" style="rounded=0;orthogonalLoop=1;jettySize=auto;html=1;entryX=0.5;entryY=0;entryDx=0;entryDy=0;endArrow=none;endFill=0;" parent="1" target="D4wwO6mZ5H6t1skt2xZH-23" edge="1">
          <mxGeometry relative="1" as="geometry">
            <mxPoint x="920" y="450" as="sourcePoint" />
            <mxPoint x="861" y="527" as="targetPoint" />
          </mxGeometry>
        </mxCell>
        <mxCell id="D4wwO6mZ5H6t1skt2xZH-33" style="rounded=0;orthogonalLoop=1;jettySize=auto;html=1;exitX=1;exitY=1;exitDx=0;exitDy=0;entryX=0.321;entryY=-0.01;entryDx=0;entryDy=0;entryPerimeter=0;endArrow=none;endFill=0;" parent="1" source="D4wwO6mZ5H6t1skt2xZH-15" target="D4wwO6mZ5H6t1skt2xZH-24" edge="1">
          <mxGeometry relative="1" as="geometry">
            <mxPoint x="950" y="480" as="sourcePoint" />
            <mxPoint x="871" y="537" as="targetPoint" />
          </mxGeometry>
        </mxCell>
        <mxCell id="D4wwO6mZ5H6t1skt2xZH-34" style="rounded=0;orthogonalLoop=1;jettySize=auto;html=1;exitX=1;exitY=1;exitDx=0;exitDy=0;entryX=0;entryY=0;entryDx=0;entryDy=0;endArrow=none;endFill=0;" parent="1" source="D4wwO6mZ5H6t1skt2xZH-15" target="D4wwO6mZ5H6t1skt2xZH-25" edge="1">
          <mxGeometry relative="1" as="geometry">
            <mxPoint x="960" y="490" as="sourcePoint" />
            <mxPoint x="881" y="547" as="targetPoint" />
          </mxGeometry>
        </mxCell>
        <mxCell id="D4wwO6mZ5H6t1skt2xZH-35" style="rounded=0;orthogonalLoop=1;jettySize=auto;html=1;exitX=1;exitY=1;exitDx=0;exitDy=0;entryX=0.019;entryY=0.407;entryDx=0;entryDy=0;entryPerimeter=0;endArrow=none;endFill=0;" parent="1" source="D4wwO6mZ5H6t1skt2xZH-15" target="D4wwO6mZ5H6t1skt2xZH-26" edge="1">
          <mxGeometry relative="1" as="geometry">
            <mxPoint x="970" y="500" as="sourcePoint" />
            <mxPoint x="891" y="557" as="targetPoint" />
          </mxGeometry>
        </mxCell>
        <mxCell id="D4wwO6mZ5H6t1skt2xZH-36" style="rounded=0;orthogonalLoop=1;jettySize=auto;html=1;entryX=0;entryY=0.5;entryDx=0;entryDy=0;endArrow=none;endFill=0;" parent="1" target="D4wwO6mZ5H6t1skt2xZH-27" edge="1">
          <mxGeometry relative="1" as="geometry">
            <mxPoint x="920" y="450" as="sourcePoint" />
            <mxPoint x="901" y="567" as="targetPoint" />
          </mxGeometry>
        </mxCell>
        <mxCell id="D4wwO6mZ5H6t1skt2xZH-37" style="rounded=0;orthogonalLoop=1;jettySize=auto;html=1;exitX=1;exitY=1;exitDx=0;exitDy=0;entryX=0.029;entryY=0.69;entryDx=0;entryDy=0;entryPerimeter=0;endArrow=none;endFill=0;" parent="1" source="D4wwO6mZ5H6t1skt2xZH-15" target="D4wwO6mZ5H6t1skt2xZH-28" edge="1">
          <mxGeometry relative="1" as="geometry">
            <mxPoint x="990" y="520" as="sourcePoint" />
            <mxPoint x="911" y="577" as="targetPoint" />
          </mxGeometry>
        </mxCell>
        <mxCell id="D4wwO6mZ5H6t1skt2xZH-38" style="rounded=0;orthogonalLoop=1;jettySize=auto;html=1;entryX=0.258;entryY=0.973;entryDx=0;entryDy=0;entryPerimeter=0;endArrow=none;endFill=0;" parent="1" target="D4wwO6mZ5H6t1skt2xZH-29" edge="1">
          <mxGeometry relative="1" as="geometry">
            <mxPoint x="920" y="450" as="sourcePoint" />
            <mxPoint x="921" y="587" as="targetPoint" />
          </mxGeometry>
        </mxCell>
        <mxCell id="D4wwO6mZ5H6t1skt2xZH-40" style="edgeStyle=orthogonalEdgeStyle;rounded=0;orthogonalLoop=1;jettySize=auto;html=1;entryX=0.5;entryY=0;entryDx=0;entryDy=0;endArrow=none;endFill=0;" parent="1" source="D4wwO6mZ5H6t1skt2xZH-39" target="D4wwO6mZ5H6t1skt2xZH-17" edge="1">
          <mxGeometry relative="1" as="geometry" />
        </mxCell>
        <mxCell id="D4wwO6mZ5H6t1skt2xZH-47" style="rounded=0;orthogonalLoop=1;jettySize=auto;html=1;entryX=1;entryY=0.5;entryDx=0;entryDy=0;exitX=0.5;exitY=0;exitDx=0;exitDy=0;endArrow=none;endFill=0;" parent="1" source="D4wwO6mZ5H6t1skt2xZH-39" target="D4wwO6mZ5H6t1skt2xZH-42" edge="1">
          <mxGeometry relative="1" as="geometry" />
        </mxCell>
        <mxCell id="D4wwO6mZ5H6t1skt2xZH-39" value="&lt;b&gt;Товары&lt;/b&gt;" style="rounded=0;whiteSpace=wrap;html=1;" parent="1" vertex="1">
          <mxGeometry x="830" y="205" width="90" height="30" as="geometry" />
        </mxCell>
        <mxCell id="D4wwO6mZ5H6t1skt2xZH-41" value="&lt;b&gt;Название&lt;/b&gt;" style="ellipse;whiteSpace=wrap;html=1;" parent="1" vertex="1">
          <mxGeometry x="740" y="100" width="80" height="50" as="geometry" />
        </mxCell>
        <mxCell id="D4wwO6mZ5H6t1skt2xZH-42" value="&lt;b&gt;Id_Товара&lt;/b&gt;" style="ellipse;whiteSpace=wrap;html=1;" parent="1" vertex="1">
          <mxGeometry x="700" y="155" width="80" height="50" as="geometry" />
        </mxCell>
        <mxCell id="D4wwO6mZ5H6t1skt2xZH-43" value="&lt;b&gt;Количество&lt;/b&gt;" style="ellipse;whiteSpace=wrap;html=1;" parent="1" vertex="1">
          <mxGeometry x="790" y="50" width="80" height="50" as="geometry" />
        </mxCell>
        <mxCell id="D4wwO6mZ5H6t1skt2xZH-44" value="&lt;b&gt;Цена&lt;/b&gt;" style="ellipse;whiteSpace=wrap;html=1;" parent="1" vertex="1">
          <mxGeometry x="880" y="50" width="80" height="50" as="geometry" />
        </mxCell>
        <mxCell id="D4wwO6mZ5H6t1skt2xZH-45" value="&lt;b&gt;Цена аренды&lt;/b&gt;" style="ellipse;whiteSpace=wrap;html=1;" parent="1" vertex="1">
          <mxGeometry x="930" y="100" width="80" height="50" as="geometry" />
        </mxCell>
        <mxCell id="D4wwO6mZ5H6t1skt2xZH-46" value="&lt;b&gt;Дней на возврат&lt;/b&gt;" style="ellipse;whiteSpace=wrap;html=1;" parent="1" vertex="1">
          <mxGeometry x="970" y="155" width="80" height="50" as="geometry" />
        </mxCell>
        <mxCell id="D4wwO6mZ5H6t1skt2xZH-48" style="rounded=0;orthogonalLoop=1;jettySize=auto;html=1;entryX=1;entryY=1;entryDx=0;entryDy=0;exitX=0.5;exitY=0;exitDx=0;exitDy=0;endArrow=none;endFill=0;" parent="1" source="D4wwO6mZ5H6t1skt2xZH-39" target="D4wwO6mZ5H6t1skt2xZH-41" edge="1">
          <mxGeometry relative="1" as="geometry">
            <mxPoint x="885" y="215" as="sourcePoint" />
            <mxPoint x="790" y="190" as="targetPoint" />
          </mxGeometry>
        </mxCell>
        <mxCell id="D4wwO6mZ5H6t1skt2xZH-49" style="rounded=0;orthogonalLoop=1;jettySize=auto;html=1;entryX=0.719;entryY=0.981;entryDx=0;entryDy=0;exitX=0.5;exitY=0;exitDx=0;exitDy=0;endArrow=none;endFill=0;entryPerimeter=0;" parent="1" source="D4wwO6mZ5H6t1skt2xZH-39" target="D4wwO6mZ5H6t1skt2xZH-43" edge="1">
          <mxGeometry relative="1" as="geometry">
            <mxPoint x="895" y="225" as="sourcePoint" />
            <mxPoint x="800" y="200" as="targetPoint" />
          </mxGeometry>
        </mxCell>
        <mxCell id="D4wwO6mZ5H6t1skt2xZH-50" style="rounded=0;orthogonalLoop=1;jettySize=auto;html=1;entryX=0.353;entryY=0.996;entryDx=0;entryDy=0;exitX=0.5;exitY=0;exitDx=0;exitDy=0;endArrow=none;endFill=0;entryPerimeter=0;" parent="1" source="D4wwO6mZ5H6t1skt2xZH-39" target="D4wwO6mZ5H6t1skt2xZH-44" edge="1">
          <mxGeometry relative="1" as="geometry">
            <mxPoint x="885" y="215" as="sourcePoint" />
            <mxPoint x="858" y="109" as="targetPoint" />
          </mxGeometry>
        </mxCell>
        <mxCell id="D4wwO6mZ5H6t1skt2xZH-51" style="rounded=0;orthogonalLoop=1;jettySize=auto;html=1;entryX=0;entryY=1;entryDx=0;entryDy=0;exitX=0.5;exitY=0;exitDx=0;exitDy=0;endArrow=none;endFill=0;" parent="1" source="D4wwO6mZ5H6t1skt2xZH-39" target="D4wwO6mZ5H6t1skt2xZH-45" edge="1">
          <mxGeometry relative="1" as="geometry">
            <mxPoint x="885" y="215" as="sourcePoint" />
            <mxPoint x="918" y="110" as="targetPoint" />
          </mxGeometry>
        </mxCell>
        <mxCell id="D4wwO6mZ5H6t1skt2xZH-52" style="rounded=0;orthogonalLoop=1;jettySize=auto;html=1;entryX=0.015;entryY=0.673;entryDx=0;entryDy=0;exitX=0.5;exitY=0;exitDx=0;exitDy=0;endArrow=none;endFill=0;entryPerimeter=0;" parent="1" source="D4wwO6mZ5H6t1skt2xZH-39" target="D4wwO6mZ5H6t1skt2xZH-46" edge="1">
          <mxGeometry relative="1" as="geometry">
            <mxPoint x="895" y="225" as="sourcePoint" />
            <mxPoint x="928" y="120" as="targetPoint" />
          </mxGeometry>
        </mxCell>
        <mxCell id="D4wwO6mZ5H6t1skt2xZH-53" value="&lt;font style=&quot;font-size: 12px;&quot;&gt;1&lt;/font&gt;" style="text;strokeColor=none;fillColor=none;html=1;fontSize=24;fontStyle=1;verticalAlign=middle;align=center;" parent="1" vertex="1">
          <mxGeometry x="880" y="235" width="20" height="30" as="geometry" />
        </mxCell>
        <mxCell id="D4wwO6mZ5H6t1skt2xZH-54" value="&lt;font style=&quot;font-size: 12px;&quot;&gt;М&lt;/font&gt;" style="text;strokeColor=none;fillColor=none;html=1;fontSize=24;fontStyle=1;verticalAlign=middle;align=center;" parent="1" vertex="1">
          <mxGeometry x="880" y="390" width="20" height="30" as="geometry" />
        </mxCell>
        <mxCell id="D4wwO6mZ5H6t1skt2xZH-55" value="&lt;font style=&quot;font-size: 12px;&quot;&gt;1&lt;/font&gt;" style="text;strokeColor=none;fillColor=none;html=1;fontSize=24;fontStyle=1;verticalAlign=middle;align=center;" parent="1" vertex="1">
          <mxGeometry x="630" y="430" width="20" height="30" as="geometry" />
        </mxCell>
        <mxCell id="D4wwO6mZ5H6t1skt2xZH-56" value="&lt;font style=&quot;font-size: 12px;&quot;&gt;М&lt;/font&gt;" style="text;strokeColor=none;fillColor=none;html=1;fontSize=24;fontStyle=1;verticalAlign=middle;align=center;" parent="1" vertex="1">
          <mxGeometry x="810" y="430" width="20" height="30" as="geometry" />
        </mxCell>
      </root>
    </mxGraphModel>
  </diagram>
</mxfile>
